<svg width="424" height="27" viewBox="0 0 424 27" fill="none" xmlns="http://www.w3.org/2000/svg">
<path fill-rule="evenodd" clip-rule="evenodd" d="M106.948 1.04587C106.819 1.25881 106.288 1.33002 105.686 1.21528C104.532 0.994585 94.5499 2.21079 94.1992 2.61507C94.077 2.75613 93.8094 3.5549 93.6051 4.39012C93.2689 5.76359 93.2964 5.95291 93.8905 6.3717C94.6595 6.91367 94.7423 8.35091 94.1714 11.2487C93.818 13.042 93.7223 13.1783 92.5983 13.4965C91.94 13.6828 91.0654 13.836 90.6541 13.837C90.2431 13.838 89.588 14.2126 89.1983 14.6695C88.7479 15.1973 87.9802 15.5777 87.0911 15.7137C85.93 15.8908 85.322 16.3093 83.5155 18.1734C82.0233 19.7133 81.1473 20.9501 80.7307 22.1069L80.123 23.7942L77.2346 23.8917L74.3465 23.9892V21.2764C74.3465 19.721 74.4879 18.5456 74.6777 18.5213C76.7266 18.2605 77.6582 17.8927 77.6582 17.3453C77.6582 17.0885 75.6212 15.8179 73.1047 14.5052C70.6004 13.1986 67.2844 11.1572 65.7362 9.96837C64.188 8.77983 62.6034 7.79781 62.215 7.786C61.7738 7.77284 61.4318 7.47959 61.3043 7.00545C61.1549 6.45033 61.0257 6.36326 60.8241 6.68115C60.6181 7.00579 60.3452 7.02738 59.7478 6.76619C58.7006 6.30859 57.6863 5.6556 57.368 5.23378C57.2107 5.02523 56.9259 5.14672 56.6229 5.55133C56.353 5.91174 56.1324 6.07811 56.1324 5.92085C56.1324 5.76393 55.8437 5.90161 55.491 6.22693C55.1383 6.55224 54.6912 6.71861 54.4975 6.59679C54.3038 6.47496 54.1455 6.54617 54.1455 6.75505C54.1455 6.98183 53.8779 7.04865 53.4831 6.92109C53.0132 6.76923 52.8208 6.86035 52.8208 7.23594C52.8208 7.57982 52.5214 7.76474 51.9647 7.76474C51.0828 7.76474 45.1076 11.7198 45.3603 12.1362C45.4348 12.2591 43.4184 13.4095 40.879 14.6928C38.34 15.9759 36.2626 17.2198 36.2626 17.457C36.2626 17.6946 36.449 17.8896 36.6765 17.8906C36.9044 17.8916 37.6495 18.0506 38.3323 18.244L39.5742 18.5952V21.2791V23.9629H33.952H28.3298L28.2394 18.0742L28.149 12.1858L25.8309 13.7061C24.5559 14.5423 23.4942 15.3698 23.4713 15.5453C23.4485 15.7204 23.4114 17.6861 23.3885 19.9134L23.3471 23.9629H20.5703H17.7932L16.9752 20.6727L16.1572 17.3824L14.6415 20.6656L13.1261 23.9484L6.56303 24.0476L0 24.1468L6.72099 24.2234L13.4423 24.3004L14.7239 21.5163C15.4664 19.9039 16.0734 18.9452 16.1668 19.2384C16.2556 19.5169 16.5039 20.5039 16.7192 21.432C17.5087 24.8376 17.3163 24.6888 20.7819 24.572L23.8439 24.4691L23.9429 19.9134L24.0419 15.3576L25.8143 14.2609C26.7889 13.6575 27.6755 13.1641 27.7847 13.1641C27.894 13.1641 27.9834 15.6698 27.9834 18.7323V24.3004H33.9444H39.9054V21.1512V18.0016L38.3323 17.6794L36.7593 17.3571L42.1954 14.5558C45.1855 13.015 47.4665 11.6503 47.2645 11.5231C46.7303 11.1866 51.2693 8.1022 52.2986 8.1022C52.7678 8.1022 53.152 7.94359 53.152 7.74989C53.152 7.55619 53.3384 7.42964 53.5659 7.46878C54.426 7.61693 56.5239 6.9852 56.6964 6.52659C56.8514 6.11489 56.9514 6.11557 57.4154 6.53166C57.9774 7.03583 59.9713 7.61153 60.686 7.47621C60.9138 7.43301 61.0999 7.55619 61.0999 7.74989C61.0999 7.94359 61.4036 8.1022 61.7745 8.1022C62.515 8.1022 67.1516 11.272 66.8546 11.5747C66.7529 11.678 69.1052 13.019 72.0814 14.5548C76.7379 16.9575 77.377 17.3797 76.6647 17.5842C76.2093 17.7145 75.4268 17.8363 74.9261 17.8549L74.0154 17.8886V21.1066V24.3247L77.2247 24.2282L80.4337 24.1316L81.1536 22.305C82.1415 19.7983 85.7287 16.2013 87.2408 16.2013C87.919 16.2013 88.5816 15.8996 89.1297 15.3411C89.694 14.7661 90.6504 14.3415 92.0125 14.0618L94.0508 13.6427L94.482 11.9692C94.7188 11.0486 94.9225 9.57455 94.934 8.69276C94.9456 7.81097 95.087 7.08982 95.248 7.08982C95.9044 7.08982 95.4818 6.47294 94.6863 6.26945C93.8869 6.06495 93.8462 5.95865 94.0581 4.63006C94.1826 3.8485 94.381 3.1108 94.4989 2.99067C94.946 2.53543 104.937 1.41742 105.749 1.73227C106.291 1.94183 106.702 1.91349 107.021 1.64454C107.359 1.35837 107.592 1.3496 107.85 1.61248C108.092 1.85883 108.482 1.873 109.042 1.65601C109.676 1.41034 111.376 1.6776 116.153 2.77402L122.431 4.21465L122.206 6.96226L121.981 9.70987L124.243 10.5751C126.012 11.2517 126.866 11.3985 128.161 11.248C130.113 11.0212 130.928 10.3591 132.297 7.88791C133.521 5.6772 135.045 5.02388 137.351 5.72141C139.186 6.27654 139.443 6.51749 140.115 8.31076C140.925 10.4719 142.63 12.2641 143.877 12.2641C144.959 12.2641 146.929 11.3624 148.113 10.3247C149.053 9.50166 149.07 8.32763 148.153 7.7067C147.472 7.2464 147.466 7.18937 147.995 6.14695C148.517 5.11904 148.64 5.06505 150.457 5.06505C151.509 5.06505 152.524 5.22297 152.714 5.41634C152.944 5.65121 153.519 5.66202 154.45 5.44908C155.742 5.15312 159.862 5.70353 160.39 6.24212C160.487 6.34099 160.178 6.83807 159.703 7.34629C158.99 8.10862 158.909 8.36778 159.238 8.82201C159.458 9.12539 159.932 9.43451 160.292 9.50942C160.73 9.6002 160.909 9.8641 160.833 10.3079C160.77 10.6723 160.696 11.1225 160.667 11.3081C160.637 11.5038 161.772 11.6867 163.371 11.7441C166.005 11.8379 166.174 11.7991 167.223 10.8606C168.112 10.0656 168.838 9.80166 171.037 9.47365C176.272 8.69377 178.001 7.60816 178.001 5.10183C178.001 3.4233 179.117 2.78515 182.472 2.54656C185.193 2.3532 185.566 2.40214 186.763 3.11182C187.483 3.53938 188.154 4.21734 188.253 4.61859C188.352 5.02219 189.321 5.94582 190.42 6.6852C192.067 7.79309 192.804 8.06373 194.724 8.26655C197.77 8.58815 199.497 9.45881 199.289 10.5684C199.118 11.4816 200.676 13.1955 202.928 14.5714C203.636 15.004 204.927 15.9131 205.797 16.5921C207.637 18.0283 207.797 18.5959 207.802 23.7098L207.806 27.0001H209.415C211.781 27.0001 214.098 26.6198 214.098 26.232C214.098 26.0454 213.78 25.193 213.391 24.3375C213.002 23.4817 212.519 22.4197 212.317 21.9773C212.004 21.2889 212.059 21.1002 212.694 20.6706C213.274 20.2778 213.436 19.8472 213.436 18.6911C213.436 17.0132 213.753 16.8735 215.257 17.8886C215.804 18.2574 216.325 18.5591 216.416 18.5591C216.507 18.5595 216.619 16.9731 216.664 15.034L216.746 11.5089L215.809 12.0569C215.195 12.4163 214.653 12.5091 214.237 12.3262C213.619 12.0549 213.619 12.0438 214.264 11.9118C215.494 11.6601 216.747 11.0594 216.747 10.7212C216.747 10.5178 216.037 10.4536 214.949 10.5586C213.594 10.6899 213.106 10.6163 212.972 10.2609C212.855 9.94947 213.03 9.78951 213.49 9.78951C213.873 9.78951 214.539 9.37174 214.969 8.86149C215.418 8.32898 216.14 7.90378 216.664 7.86396C217.165 7.82582 218.126 7.74483 218.798 7.68375C219.779 7.595 219.95 7.66081 219.66 8.01683C219.389 8.34889 219.449 8.57262 219.894 8.90502C220.272 9.18647 220.362 9.43011 220.138 9.57083C219.926 9.70447 219.883 10.1611 220.03 10.7192C220.163 11.2288 220.15 12.3161 220 13.1358C219.85 13.9555 219.784 14.6831 219.852 14.7532C219.921 14.8231 220.287 14.3446 220.666 13.6899C221.098 12.9434 221.53 12.5675 221.824 12.6826C222.081 12.7831 222.561 12.5911 222.891 12.2557C223.22 11.9199 223.537 11.6837 223.596 11.7299C223.905 11.9749 224.622 11.7228 225.358 11.1103L226.186 10.4212L224.136 10.5711C222.595 10.6838 222.043 10.6055 221.911 10.2552C221.796 9.94913 221.977 9.78951 222.441 9.78951C222.829 9.78951 223.574 9.30053 224.098 8.70323C224.882 7.80794 225.152 7.6824 225.634 7.98882C226.074 8.26925 226.373 8.24562 226.845 7.89399C227.66 7.28656 228.338 7.29904 228.338 7.92166C228.338 8.19332 228.641 8.58073 229.01 8.78219C229.379 8.98366 229.585 9.30728 229.467 9.50132C229.35 9.69536 229.205 11.0054 229.145 12.4123L229.036 14.9699L229.647 13.9474C230.712 12.1629 233.325 12.1875 234.486 13.9926C235.257 15.1923 236.459 15.1295 237.105 13.8559C237.711 12.663 237.751 11.9182 237.22 11.7377C236.995 11.6611 236.924 11.3536 237.053 11.0111C237.374 10.1587 238.741 10.427 238.873 11.3678C239.101 13.0062 241.254 13.2694 241.254 11.6591C241.254 10.6953 242.059 10.3207 242.708 10.9821C243.019 11.2997 243.529 11.4012 244.165 11.2716C245.106 11.0796 245.149 10.9892 245.32 8.82808C245.431 7.43774 245.361 6.41388 245.137 6.13783C244.847 5.77911 245.031 5.71297 246.078 5.80037C247.221 5.89554 247.393 6.02209 247.485 6.83672C247.6 7.85856 248.208 8.12785 248.208 7.15731C248.208 6.28363 248.864 5.73997 249.919 5.73997C250.868 5.73997 251.71 6.75742 251.402 7.5302C251.311 7.7563 251.229 7.68307 251.215 7.36282C251.2 7.04898 251.042 6.69937 250.861 6.58632C250.378 6.2816 250.558 10.2653 251.059 10.9635C251.39 11.4242 251.753 11.4961 252.822 11.3118C253.733 11.1552 254.169 11.2028 254.169 11.4589C254.169 11.7319 254.378 11.7245 254.914 11.4333C255.59 11.0665 255.617 11.0813 255.205 11.5902C254.885 11.9857 254.866 12.1517 255.142 12.1517C255.357 12.1517 255.441 12.3036 255.328 12.4892C255.216 12.6748 255.393 12.8388 255.723 12.8533C256.188 12.8739 256.211 12.9228 255.825 13.0723C255.552 13.178 254.971 13.6973 254.535 14.2268C254.057 14.8069 253.399 15.1994 252.879 15.2156C252.397 15.2304 252.224 15.3256 252.486 15.4312C252.744 15.5351 253.266 15.9722 253.645 16.4024C254.263 17.103 254.49 17.1539 255.824 16.8917C256.872 16.6855 257.385 16.7149 257.557 16.9906C258.046 17.7735 257.787 18.0577 256.57 18.0742C255.887 18.0833 255.097 18.2021 254.815 18.3374C254.438 18.5183 254.153 18.2662 253.744 17.3925C253.334 16.5161 252.976 16.2013 252.388 16.2013C251.031 16.2013 251.035 17.1934 252.397 18.6155C253.075 19.3225 253.696 19.8331 253.777 19.7504C253.858 19.6674 254.193 19.7457 254.52 19.9242C254.935 20.1503 255.185 20.8357 255.347 22.1899C255.475 23.258 255.799 24.7013 256.069 25.3971C256.518 26.557 256.667 26.6626 257.848 26.6626C258.557 26.6626 259.137 26.5108 259.137 26.3251C259.137 26.1395 259.435 25.9877 259.799 25.9877C260.163 25.9877 260.461 26.1395 260.461 26.3251C260.461 26.5108 260.908 26.6626 261.455 26.6626C262.428 26.6626 262.448 26.6275 262.448 24.953C262.448 24.0129 262.304 22.9691 262.128 22.6333C261.886 22.173 261.968 21.875 262.461 21.4198C263.075 20.8542 263.081 20.7769 262.563 20.1941C262.259 19.8516 262.072 19.5266 262.146 19.4716C262.935 18.8912 264.149 18.2261 264.419 18.2261C264.605 18.2261 265.538 18.7366 266.492 19.3606L268.227 20.4952L272.131 17.8063C276.437 14.8413 275.97 14.9149 278.328 16.8286C278.988 17.3642 279.064 17.5798 278.737 17.9814C278.402 18.3931 278.645 18.6654 280.199 19.6161C281.224 20.2437 282.204 20.7159 282.378 20.6652C282.551 20.6146 284.211 19.5411 286.066 18.2794C287.92 17.0176 289.606 15.8847 289.812 15.7616C290.017 15.6384 290.885 16.0822 291.74 16.7476L293.296 17.9581L295.167 16.774L297.039 15.5901L298.372 16.6359C299.104 17.211 299.774 17.7361 299.86 17.8032C299.946 17.8704 299.823 18.0472 299.586 18.196C299.284 18.386 299.806 18.9395 301.334 20.0507C302.741 21.0739 303.513 21.8676 303.513 22.2928C303.513 22.6546 303.289 22.9505 303.016 22.9505C302.65 22.9505 302.519 23.3403 302.519 24.433C302.519 26.1233 302.787 26.3251 305.03 26.3251C306.11 26.3251 306.493 26.1925 306.493 25.819C306.493 25.4208 306.954 25.3128 308.651 25.3128C309.838 25.3128 311.402 25.1238 312.128 24.8933L313.448 24.4735L313.455 19.9157L313.461 15.3576L318.505 9.04574C321.279 5.57427 323.715 2.72677 323.919 2.71833C324.513 2.69336 329.719 5.80308 329.904 6.29307C329.996 6.53841 331.088 10.7789 332.329 15.7167C333.571 20.6544 334.675 24.7836 334.782 24.893C334.889 25.0023 336.988 25.1616 339.446 25.2463C343.004 25.3695 343.915 25.498 343.915 25.8777C343.915 26.2539 344.422 26.3339 346.316 26.2556L348.717 26.1564V24.4114V22.6664L350.704 22.1399C351.796 21.8507 353.063 21.5227 353.519 21.411C353.974 21.2997 355.166 20.2451 356.168 19.0677C357.17 17.8906 358.138 16.9171 358.32 16.9046C358.503 16.8924 359.227 17.7921 359.93 18.904L361.208 20.9258H367.961H374.713V20.0821C374.713 19.6181 374.564 19.2384 374.382 19.2384C374.2 19.2384 374.051 19.1095 374.051 18.9519C374.051 18.7947 375.355 18.3243 376.948 17.9065C382.758 16.3845 382.162 16.7665 383.903 13.4466C384.763 11.8065 385.55 10.4644 385.652 10.4644C385.753 10.4644 386.576 11.7856 387.481 13.4007L389.125 16.3366L392.433 17.2282C394.253 17.7185 396.153 18.223 396.656 18.3489C397.525 18.5669 397.545 18.6155 397.069 19.3569C396.793 19.7855 396.668 20.2377 396.79 20.3622C396.912 20.4864 399.962 20.5883 403.569 20.5883H410.127L411.514 18.6479C412.277 17.5808 412.959 16.6376 413.03 16.5519C413.1 16.4662 414.082 17.4084 415.213 18.6455C417.208 20.8289 417.355 20.9187 420.248 21.7235C421.888 22.1798 422.968 22.5662 422.649 22.583C422.179 22.6073 422.07 22.9299 422.07 24.3004V25.9877L423.146 25.9418C423.924 25.9084 424.016 25.8554 423.477 25.7494C422.855 25.6276 422.732 25.384 422.732 24.2768C422.732 23.2917 422.867 22.9505 423.256 22.9505C423.545 22.9505 423.719 22.7609 423.643 22.5287C423.567 22.2969 422.114 21.7195 420.413 21.246C417.408 20.4088 417.27 20.3261 415.474 18.2905C414.457 17.1388 413.385 16.1976 413.092 16.1989C412.799 16.2003 412.031 17.0126 411.385 18.004L410.21 19.8067L406.65 20.0288C401.66 20.3399 397.232 20.3052 397.232 19.9545C397.232 19.7919 397.456 19.4696 397.729 19.2384C398.549 18.5453 398.326 18.3529 395.99 17.734C394.761 17.4087 392.753 16.8492 391.528 16.4915L389.302 15.8405L387.554 12.6468C386.593 10.89 385.733 9.45341 385.642 9.45408C385.55 9.45509 384.692 10.9575 383.733 12.7929C382.322 15.4963 381.819 16.1723 381.084 16.3515C380.585 16.4733 378.42 17.0419 376.273 17.6149C372.817 18.5375 372.456 18.7009 373.124 19.0407C373.539 19.2516 373.929 19.6859 373.989 20.0055C374.099 20.5883 372.748 20.6177 361.963 20.2687C361.534 20.2549 360.893 19.5958 360.142 18.3978C358.445 15.6907 358.562 15.6816 355.873 18.7323C354.111 20.7317 354.046 20.7682 350.757 21.6341C348.924 22.1167 347.368 22.686 347.298 22.8996C347.228 23.1132 347.407 23.288 347.696 23.288C348.086 23.288 348.22 23.6315 348.22 24.6378V25.9877H346.388C345.065 25.9877 344.503 25.847 344.366 25.4815C344.212 25.0745 343.469 24.9753 340.568 24.9753C338.546 24.9753 336.96 24.8363 336.96 24.6591C336.96 24.4853 336.487 24.2956 335.908 24.2373L334.856 24.1316L332.632 15.1305C331.408 10.18 330.32 5.98429 330.212 5.80713C329.934 5.34784 324.039 1.97053 323.731 2.09404C323.515 2.18076 319.017 7.68611 314.358 13.5664L313.116 15.1339V19.6711V24.2086L311.58 24.4232C310.735 24.5413 309.17 24.6378 308.103 24.6378C306.383 24.6378 306.162 24.7148 306.162 25.3128C306.162 25.825 305.943 25.9867 305.251 25.983C303.437 25.9738 302.85 25.6354 302.85 24.5984C302.85 23.998 303.024 23.6255 303.306 23.6255C303.676 23.6255 304.39 21.6415 304.094 21.4326C304.048 21.3996 303.301 20.8853 302.436 20.2893C301.011 19.308 300.458 18.7633 301.112 18.9854C301.248 19.0319 301.405 18.9449 301.461 18.7923C301.516 18.6398 300.559 17.7415 299.333 16.7956C297.114 15.0843 297.099 15.0789 296.169 15.6387C293.042 17.5198 293.52 17.456 291.828 16.2175C290.95 15.5746 290.088 15.1865 289.794 15.3009C289.515 15.4106 287.979 16.3933 286.381 17.4853C281.928 20.5292 282.148 20.4563 280.635 19.3879C279.229 18.3948 278.817 17.8009 280.154 18.6935C281.081 19.3127 281.325 19.3647 281.325 18.9432C281.325 18.7809 280.138 17.7121 278.687 16.5685L276.049 14.489L272.342 17.0888C270.303 18.5186 268.45 19.6883 268.223 19.6883C267.997 19.6883 267.049 19.1902 266.118 18.5814L264.426 17.4745L262.609 18.5966C260.721 19.7629 260.364 20.2508 261.399 20.2508C262.383 20.2508 262.501 20.6558 261.753 21.467C261.098 22.1781 261.087 22.277 261.585 23.0015C262.198 23.8934 262.294 25.8362 261.742 26.1837C261.536 26.3137 261.231 26.1709 261.064 25.8662C260.677 25.1629 258.854 25.1278 258.594 25.819C258.489 26.0974 258.059 26.3251 257.637 26.3251C257.014 26.3251 256.78 26.0272 256.378 24.7222C256.106 23.8404 255.789 22.4433 255.674 21.6176C255.438 19.9245 255.01 19.2384 254.191 19.2384C253.56 19.2384 251.851 17.5609 251.851 16.942C251.851 16.0768 252.842 16.6012 253.377 17.7492C253.872 18.8132 254.045 18.9307 254.8 18.7191C255.273 18.5868 256.293 18.4906 257.067 18.5055C257.841 18.52 258.474 18.4859 258.474 18.4296C258.474 18.3729 258.312 17.8535 258.115 17.2751C257.766 16.2553 257.702 16.2269 256.045 16.3467C255.104 16.4149 254.229 16.4044 254.099 16.3241C253.97 16.2438 254.603 15.4518 255.507 14.5643C256.814 13.2799 257.15 12.7271 257.15 11.8541C257.15 10.3224 256.618 9.47331 255.312 8.91718C253.847 8.29355 253.898 8.27026 253.955 9.53642C254.002 10.5984 253.962 10.6332 252.684 10.6332C251.691 10.6332 251.337 10.487 251.252 10.0426C251.184 9.68186 251.343 9.45205 251.661 9.45205C252.303 9.45205 252.326 8.58815 251.733 6.6798C251.486 5.88441 251.257 4.70228 251.225 4.05266C251.192 3.37571 250.88 2.58369 250.494 2.19662L249.821 1.5217L249.016 2.53408C248.48 3.20901 248.211 3.97504 248.21 4.83186C248.209 5.68597 248.085 6.03964 247.841 5.8861C247.614 5.74301 247.552 5.15818 247.68 4.3476C247.839 3.33015 247.777 3.04028 247.401 3.04028C247.134 3.04028 246.76 2.77436 246.569 2.44972C246.238 1.88717 246.2 1.88717 245.771 2.44972C245.523 2.77436 245.06 3.04028 244.741 3.04028C244.282 3.04028 244.207 3.22318 244.379 3.92139C244.499 4.40598 244.417 5.62084 244.197 6.62108C243.78 8.51762 243.286 8.87162 242.364 7.93246C241.922 7.48128 241.924 7.40299 242.388 7.22143C243.372 6.83706 242.91 6.4618 241.833 6.77091C240.743 7.08374 239.271 8.58242 239.268 9.38288C239.267 9.62349 239.639 10.1999 240.095 10.6639C241.052 11.6395 241.123 12.0009 240.413 12.2786C239.857 12.496 239.406 11.7282 239.753 11.1556C239.872 10.9612 239.81 10.8019 239.617 10.8019C239.425 10.8019 239.267 10.5741 239.267 10.2957C239.267 10.0173 239.081 9.77028 238.853 9.74632C238.625 9.7227 238.103 9.66769 237.694 9.62382C237.284 9.57995 236.948 9.67073 236.948 9.82495C236.948 9.97951 236.688 10.0062 236.369 9.88434C235.862 9.69064 235.846 9.73383 236.244 10.2326C236.636 10.7229 236.624 10.8019 236.161 10.8019C235.866 10.8019 235.624 11.0297 235.624 11.3081C235.624 11.5865 235.773 11.8143 235.955 11.8143C236.137 11.8143 236.286 12.0421 236.286 12.3205C236.286 12.5989 236.435 12.8267 236.617 12.8267C237.209 12.8267 236.966 13.4503 236.289 13.6693C235.376 13.9646 234.632 13.4682 235.48 13.1297C236.015 12.9161 235.969 12.8702 235.2 12.8503C234.693 12.8375 234.197 12.6104 234.097 12.3461C233.971 12.009 233.59 11.9192 232.825 12.0458C232.162 12.1555 231.639 12.0691 231.492 11.8261C231.319 11.542 231.019 11.6459 230.456 12.1852C229.79 12.8226 229.663 12.8537 229.663 12.3792C229.663 12.0684 229.809 11.8143 229.987 11.8143C230.18 11.8143 230.152 11.4596 229.917 10.9335C229.583 10.1854 229.613 9.98659 230.117 9.61066C230.68 9.19119 230.674 9.14766 229.994 8.77713C229.335 8.41739 229.319 8.33843 229.801 7.79579C230.601 6.89477 230.342 5.83547 229.525 6.66799C229.388 6.80736 228.804 6.9636 228.228 7.01524C227.651 7.06721 226.658 7.15765 226.02 7.21637C223.9 7.41176 222.979 7.78972 223.391 8.29591C223.681 8.65159 223.57 8.79805 222.879 8.97488C221.735 9.26746 220.128 8.57162 220.671 8.01852C221.13 7.55113 221.179 6.41489 220.741 6.41489C220.569 6.41489 220.343 6.5573 220.237 6.73177C220.132 6.9059 219.733 6.98689 219.351 6.91197C218.969 6.83706 218.227 7.00242 217.702 7.27914C217.177 7.55552 216.747 7.64393 216.747 7.4752C216.747 7.30647 216.455 7.09049 216.097 6.99499C215.648 6.87553 215.382 7.02772 215.239 7.48633C215.125 7.8518 214.84 8.07622 214.606 7.98443C214.359 7.88792 214.198 8.04922 214.222 8.36913C214.245 8.67217 213.966 8.98028 213.601 9.05351C213.237 9.12708 212.773 9.32382 212.571 9.49053C212.144 9.84284 212.374 11.5598 212.811 11.2841C212.972 11.1826 213.123 11.3364 213.146 11.6256C213.169 11.9149 213.21 12.3417 213.236 12.5736C213.27 12.8597 213.802 12.9677 214.895 12.909L216.504 12.823L216.247 14.0901C216.107 14.7873 216.009 15.9195 216.029 16.6066L216.068 17.8552L214.953 17.185C213.904 16.5543 213.805 16.5485 213.275 17.0881C212.881 17.4897 212.772 17.9642 212.91 18.6702C213.062 19.444 212.954 19.7889 212.444 20.1526C212.079 20.4132 211.78 20.9237 211.78 21.2868C211.78 21.9493 211.859 22.1609 212.883 24.2433C213.187 24.8616 213.436 25.4923 213.436 25.6445C213.436 26.0926 211.465 26.6626 209.915 26.6626C208.192 26.6626 208.195 26.6717 208.064 21.5507C207.958 17.4465 207.894 17.3203 204.853 15.3026C203.836 14.628 202.215 13.4675 201.251 12.7234C199.692 11.5214 199.52 11.2669 199.7 10.43C199.88 9.59379 199.762 9.41831 198.638 8.85576C197.943 8.50783 196.22 8.03404 194.809 7.80322C191.96 7.33718 188.915 5.61275 188.584 4.27809C188.485 3.87853 187.815 3.19955 187.094 2.76929C185.893 2.05218 185.51 2.00191 182.505 2.16524C178.816 2.36569 177.67 2.98325 177.67 4.77045C177.67 6.49015 177.071 7.23864 175.084 7.99793C174.047 8.39411 172.454 8.81728 171.543 8.93809C168.803 9.30221 167.567 9.73789 166.745 10.6295C166.051 11.3827 165.698 11.4768 163.572 11.4768H161.18L161.229 10.403C161.268 9.52629 161.13 9.2921 160.474 9.12809C159.411 8.86217 159.291 8.35901 160.11 7.60344C161.169 6.6275 160.961 5.82569 159.539 5.39981C158.856 5.19497 156.044 4.95605 153.29 4.86898L148.284 4.71004L147.743 5.55065C147.024 6.66968 147.062 7.49174 147.865 8.19265C148.229 8.51053 148.527 8.96779 148.527 9.20874C148.527 9.79019 145.04 11.8143 144.038 11.8143C143.115 11.8143 141.093 9.88873 140.796 8.72651C140.367 7.05067 139.308 5.78687 138.03 5.42511C135.229 4.63242 133.417 5.17944 132.277 7.16203C131.834 7.93111 131.003 9.06464 130.429 9.68118C129.518 10.6598 129.176 10.8019 127.727 10.8019C126.814 10.8019 125.243 10.4803 124.235 10.0875L122.403 9.37308L122.599 6.54414C122.707 4.9881 122.723 3.7152 122.636 3.7152C122.549 3.7152 119.733 3.09933 116.378 2.34679C112.555 1.4893 109.886 1.05229 109.227 1.17614C108.645 1.28582 108.083 1.21866 107.966 1.02597C107.692 0.573431 107.229 0.582539 106.948 1.04587ZM250.535 3.23094C251.126 4.81566 250.954 5.40251 249.899 5.40251C248.72 5.40251 248.505 4.88855 249.087 3.4621C249.626 2.14128 250.1 2.06569 250.535 3.23094ZM246.691 3.58257C246.979 3.69529 247.215 4.15086 247.215 4.59496C247.215 5.26718 247.048 5.40251 246.221 5.40251C245.675 5.40251 245.228 5.26314 245.228 5.09272C245.228 4.9223 245.142 4.55582 245.038 4.27843C244.92 3.96695 245.079 3.71351 245.452 3.61497C245.784 3.52757 246.081 3.43848 246.111 3.41688C246.142 3.39528 246.403 3.46986 246.691 3.58257ZM240.899 9.87388C240.912 10.0133 240.773 10.127 240.591 10.127C240.409 10.127 240.271 9.7092 240.283 9.19895C240.304 8.37656 240.339 8.34788 240.591 8.94586C240.748 9.31707 240.886 9.73451 240.899 9.87388ZM242.909 9.45205C242.909 9.94711 242.689 10.127 242.082 10.127C241.475 10.127 241.254 9.94711 241.254 9.45205C241.254 8.95699 241.475 8.77713 242.082 8.77713C242.689 8.77713 242.909 8.95699 242.909 9.45205ZM244.565 10.1631C244.565 10.5768 244.332 10.8019 243.903 10.8019C243.215 10.8019 243.106 10.5393 243.434 9.66971C243.693 8.98061 244.565 9.36093 244.565 10.1631ZM254.896 10.3342C254.609 10.8583 254.569 10.8181 254.614 10.0463C254.643 9.55092 254.792 9.27792 254.949 9.43686C255.105 9.59581 255.081 9.99739 254.896 10.3342ZM221.446 11.1137C221.319 11.4569 221.432 11.5301 221.84 11.3705C222.602 11.0729 222.207 11.7026 221.334 12.1787C220.733 12.5064 220.684 12.4676 220.883 11.8271C221.012 11.4127 220.929 10.888 220.687 10.5913C220.345 10.1712 220.355 10.02 220.743 9.77601C221.284 9.43551 221.743 10.3085 221.446 11.1137Z" fill="#CFB57E"/>
</svg>
