<?xml version="1.0" standalone="no"?>
<!DOCTYPE svg PUBLIC "-//W3C//DTD SVG 20010904//EN"
 "http://www.w3.org/TR/2001/REC-SVG-20010904/DTD/svg10.dtd">
<svg version="1.0" xmlns="http://www.w3.org/2000/svg"
 width="512.000000pt" height="512.000000pt" viewBox="0 0 512.000000 512.000000"
 preserveAspectRatio="xMidYMid meet">

<g transform="translate(0.000000,512.000000) scale(0.100000,-0.100000)"
fill="#000000" stroke="none">
<path d="M3315 5100 c-358 -67 -652 -286 -814 -607 -172 -341 -153 -789 46
-1098 59 -91 112 -156 242 -295 279 -301 343 -403 501 -795 39 -99 83 -195 97
-213 34 -45 77 -65 129 -59 88 9 119 55 224 316 66 166 149 340 204 425 43 67
118 157 261 311 249 269 326 390 381 600 32 122 44 345 24 477 -53 365 -288
682 -625 844 -220 106 -440 136 -670 94z m320 -605 c82 -22 149 -60 222 -129
81 -75 138 -185 155 -298 51 -340 -263 -643 -598 -576 -117 23 -187 60 -270
142 -108 108 -154 217 -154 366 0 143 48 258 150 360 67 67 142 112 227 135
66 18 197 18 268 0z"/>
<path d="M3297 1910 c-20 -16 -27 -30 -27 -55 0 -28 11 -46 61 -100 l62 -65
-62 -64 c-50 -53 -61 -70 -61 -99 0 -42 29 -70 71 -70 24 0 44 13 94 63 l65
64 26 -25 c15 -13 42 -39 60 -57 47 -45 78 -56 113 -37 62 31 55 72 -26 156
l-66 69 66 69 c44 46 67 77 67 93 0 53 -57 90 -103 67 -12 -6 -48 -37 -80 -67
l-57 -56 -63 61 c-73 73 -101 83 -140 53z"/>
<path d="M3485 1339 c-27 -13 -65 -81 -65 -118 0 -54 59 -87 105 -57 28 18 65
85 65 116 0 26 -43 70 -67 69 -10 0 -27 -5 -38 -10z"/>
<path d="M3295 1060 c-11 -5 -46 -33 -79 -64 -52 -48 -58 -58 -52 -83 8 -34
40 -63 71 -63 22 0 77 36 128 83 61 58 7 159 -68 127z"/>
<path d="M1645 988 c-28 -16 -35 -28 -35 -65 0 -23 8 -38 28 -53 24 -20 36
-22 104 -18 90 5 118 23 118 72 0 37 -7 49 -37 65 -28 14 -152 14 -178 -1z"/>
<path d="M2042 964 c-57 -23 -49 -116 11 -129 136 -29 180 -25 197 21 11 29 4
68 -15 84 -7 6 -47 17 -88 24 -61 10 -81 10 -105 0z"/>
<path d="M1303 960 c-23 -5 -51 -14 -62 -20 -44 -23 -36 -99 13 -121 31 -14
158 6 186 29 30 27 34 64 10 95 -23 29 -61 34 -147 17z"/>
<path d="M2437 903 c-9 -2 -24 -18 -33 -35 -12 -24 -13 -36 -4 -58 15 -36 43
-48 133 -56 68 -6 76 -5 96 15 48 48 12 114 -70 125 -29 4 -64 9 -78 11 -14 2
-34 1 -44 -2z"/>
<path d="M2885 880 c-65 -9 -95 -33 -95 -77 0 -28 41 -73 67 -73 62 1 149 21
166 39 28 28 27 79 -2 103 -24 19 -40 20 -136 8z"/>
<path d="M915 854 c-67 -27 -85 -45 -85 -84 0 -30 37 -70 65 -70 31 0 139 42
163 63 47 42 14 117 -50 117 -18 -1 -60 -12 -93 -26z"/>
<path d="M581 685 c-19 -13 -38 -30 -43 -37 -14 -23 -8 -68 12 -88 30 -30 72
-25 122 13 49 37 59 73 33 113 -21 32 -77 32 -124 -1z"/>
</g>
</svg>
