<?xml version="1.0" standalone="no"?>
<!DOCTYPE svg PUBLIC "-//W3C//DTD SVG 20010904//EN"
 "http://www.w3.org/TR/2001/REC-SVG-20010904/DTD/svg10.dtd">
<svg version="1.0" xmlns="http://www.w3.org/2000/svg"
 width="500.000000pt" height="500.000000pt" viewBox="0 0 500.000000 500.000000"
 preserveAspectRatio="xMidYMid meet">

<g transform="translate(0.000000,500.000000) scale(0.100000,-0.100000)"
fill="#000000" stroke="none">
<path d="M2441 4509 c-112 -19 -252 -112 -306 -203 -31 -52 -60 -137 -68 -193
l-5 -43 459 0 459 0 0 28 c0 15 -6 50 -14 77 -50 181 -184 303 -367 334 -74
12 -82 12 -158 0z"/>
<path d="M1640 3589 c-238 -11 -540 -37 -624 -54 -228 -47 -425 -234 -495
-470 -36 -121 -71 -539 -71 -851 0 -285 33 -710 66 -838 59 -231 248 -420 479
-480 305 -78 1520 -88 2030 -16 166 24 287 83 400 196 76 76 139 182 169 284
53 180 84 860 56 1245 -33 462 -66 574 -213 731 -112 120 -228 178 -417 208
-292 46 -911 66 -1380 45z"/>
<path d="M3955 3300 c-25 -28 -23 -76 4 -103 21 -22 25 -22 372 -22 l351 0 19
24 c25 30 24 76 -1 101 -19 19 -33 20 -373 20 -342 0 -355 -1 -372 -20z"/>
<path d="M3972 3043 c-7 -3 -19 -17 -27 -33 -17 -33 -4 -84 25 -100 11 -6 156
-10 358 -10 328 0 340 1 366 21 34 27 36 77 3 107 -23 22 -27 22 -368 21 -189
0 -350 -3 -357 -6z"/>
<path d="M3964 2757 c-35 -31 -38 -82 -5 -109 22 -17 48 -18 370 -18 l348 0
21 23 c28 30 29 78 1 103 -20 18 -43 19 -364 22 l-343 3 -28 -24z"/>
<path d="M890 342 c0 -4 11 -47 25 -97 29 -106 64 -160 125 -192 38 -21 56
-24 115 -21 59 3 77 8 111 33 57 40 78 76 103 170 12 44 24 88 27 98 5 16 -11
17 -250 17 -141 0 -256 -3 -256 -8z"/>
<path d="M3604 333 c2 -10 14 -54 26 -98 30 -111 66 -161 139 -192 44 -19 129
-18 173 0 67 28 104 78 138 184 16 53 30 103 30 110 0 10 -54 13 -256 13 -238
0 -255 -1 -250 -17z"/>
</g>
</svg>
